<?xml version="1.0" standalone="no"?>
<!DOCTYPE svg PUBLIC "-//W3C//DTD SVG 20010904//EN"
 "http://www.w3.org/TR/2001/REC-SVG-20010904/DTD/svg10.dtd">
<svg version="1.0" xmlns="http://www.w3.org/2000/svg"
 width="700.000000pt" height="700.000000pt" viewBox="0 0 700.000000 700.000000"
 preserveAspectRatio="xMidYMid meet">
<metadata>
Created by potrace 1.11, written by Peter Selinger 2001-2013
</metadata>
<g transform="translate(0.000000,700.000000) scale(0.100000,-0.100000)"
fill="#000000" stroke="none">
<path d="M3843 6279 c-86 -16 -173 -85 -202 -162 -10 -27 -36 -171 -46 -263
-3 -27 -8 -56 -10 -64 -3 -8 -7 -33 -10 -55 -3 -22 -8 -58 -12 -80 -3 -22 -7
-47 -8 -55 -2 -15 -23 -155 -30 -200 -3 -14 -7 -43 -10 -65 -13 -86 -15 -101
-20 -125 -2 -14 -6 -41 -9 -60 -3 -19 -19 -125 -36 -235 -17 -110 -33 -211
-35 -225 -4 -26 -14 -94 -21 -145 -2 -16 -6 -41 -9 -55 -2 -14 -7 -45 -10 -70
-3 -25 -8 -52 -10 -60 -2 -8 -6 -37 -10 -65 -3 -27 -10 -75 -15 -105 -8 -46
-40 -256 -56 -365 -2 -16 -6 -41 -9 -55 -3 -14 -7 -43 -10 -65 -2 -22 -14 -98
-25 -170 -21 -134 -44 -290 -55 -360 -3 -23 -7 -50 -9 -60 -6 -31 -16 -97 -21
-130 -2 -16 -6 -46 -9 -65 -3 -19 -17 -109 -31 -200 -14 -91 -27 -180 -30
-197 -3 -18 -7 -50 -11 -70 -3 -21 -9 -63 -14 -93 -5 -30 -12 -75 -15 -100 -3
-25 -8 -56 -10 -70 -6 -33 -10 -61 -35 -220 -11 -74 -29 -191 -39 -260 -11
-69 -22 -143 -26 -165 -3 -22 -7 -53 -10 -70 -3 -16 -7 -48 -10 -70 -3 -22 -7
-49 -10 -60 -2 -11 -7 -40 -10 -65 -3 -25 -14 -94 -24 -155 -29 -172 -18 -242
49 -319 72 -82 197 -109 299 -65 60 25 126 94 141 148 11 38 35 172 45 256 4
28 8 57 10 65 2 8 7 38 10 65 4 28 8 57 10 65 2 8 7 35 10 60 3 25 12 85 21
134 8 50 17 108 19 130 3 23 7 52 10 66 7 35 14 81 19 121 5 38 15 101 22 139
2 14 6 45 10 70 3 25 9 70 14 100 5 30 12 75 15 100 3 25 8 52 10 60 2 8 7 35
10 60 8 57 14 98 20 130 3 14 7 48 10 75 4 28 8 57 10 65 2 8 13 78 25 155 11
77 22 149 24 160 5 26 15 89 22 140 3 22 11 78 19 125 7 47 17 110 21 140 4
30 8 57 9 60 1 3 5 32 9 65 5 33 10 69 12 80 3 11 7 36 9 55 7 46 13 88 19
125 14 85 36 225 41 265 4 25 15 101 26 170 28 179 40 260 45 300 2 19 11 73
19 120 8 47 17 105 20 130 3 25 10 70 15 100 5 30 12 73 15 95 4 22 12 81 20
130 8 50 17 110 20 135 7 52 12 84 25 160 5 30 12 73 15 95 3 22 13 85 21 140
8 55 17 114 20 130 2 17 12 84 23 150 28 185 20 240 -51 320 -54 62 -155 98
-235 84z"/>
<path d="M1796 5463 c-53 -16 -93 -53 -356 -332 -74 -79 -159 -169 -188 -200
-56 -59 -263 -277 -327 -346 -20 -22 -101 -107 -179 -190 -78 -82 -174 -183
-212 -224 -38 -40 -89 -95 -114 -121 -117 -123 -299 -317 -337 -359 -64 -69
-78 -104 -77 -191 0 -87 18 -128 86 -201 40 -44 245 -261 333 -354 22 -23 103
-109 180 -190 77 -82 179 -189 226 -239 47 -50 98 -104 113 -121 15 -16 62
-66 104 -110 117 -123 233 -247 392 -415 316 -337 311 -333 430 -345 140 -14
273 114 272 263 -1 82 -29 133 -137 248 -55 58 -109 116 -120 129 -11 12 -92
98 -181 191 -152 160 -239 253 -334 354 -44 46 -292 310 -345 365 -62 65 -286
302 -339 360 -31 32 -56 62 -56 65 0 6 39 49 209 229 75 79 152 161 171 181
19 21 97 102 172 182 76 80 146 154 155 165 10 11 86 91 168 178 83 86 166
174 185 195 90 96 294 311 345 365 72 76 107 148 106 219 -2 180 -170 301
-345 249z"/>
<path d="M5039 5464 c-63 -19 -131 -81 -158 -145 -47 -108 -20 -214 80 -319
55 -58 291 -308 420 -445 41 -44 107 -114 146 -155 39 -41 93 -97 118 -125 26
-27 109 -115 185 -195 75 -80 148 -157 161 -171 31 -34 258 -274 327 -346 28
-30 52 -58 52 -62 0 -7 -45 -56 -234 -256 -68 -71 -138 -146 -156 -165 -18
-19 -92 -98 -165 -175 -73 -77 -149 -158 -170 -180 -20 -22 -99 -105 -175
-185 -75 -80 -152 -161 -170 -180 -18 -19 -92 -98 -165 -175 -73 -77 -152
-160 -175 -185 -82 -87 -104 -140 -101 -233 3 -97 86 -203 181 -231 60 -18
140 -12 194 14 24 11 76 55 116 98 40 42 109 115 154 162 44 47 117 124 160
170 44 47 116 123 160 170 45 47 145 153 222 235 78 83 165 175 194 205 28 30
104 111 168 179 64 67 135 142 157 166 22 23 94 99 160 169 66 70 144 153 173
184 79 85 96 122 96 212 -1 110 -8 121 -188 310 -114 121 -379 402 -406 431
-14 15 -84 89 -156 165 -185 195 -213 225 -329 349 -57 61 -130 137 -162 171
-32 34 -119 126 -193 205 -304 323 -320 337 -425 344 -27 2 -71 -3 -96 -11z"/>
</g>
</svg>
